<svg width="1024" height="1024" viewBox="0 0 1024 1024" fill="none" xmlns="http://www.w3.org/2000/svg">
<path d="M0 150C0 67.1573 67.1573 0 150 0H874C956.843 0 1024 67.1573 1024 150V874C1024 956.843 956.843 1024 874 1024H150C67.1573 1024 0 956.843 0 874V150Z" fill="white"/>
<path d="M325.565 735.622L342.205 697.402H364.825L335.965 754.082V790.222H315.035V754.732L286.175 697.402H309.055L325.565 735.622ZM403.122 717.942C409.449 717.942 414.909 719.198 419.502 721.712C424.095 724.225 427.649 727.865 430.162 732.632C432.675 737.398 433.932 743.248 433.932 750.182V759.542H391.682C391.855 765.002 393.242 769.292 395.842 772.412C398.529 775.532 402.342 777.092 407.282 777.092C411.615 777.092 415.515 776.658 418.982 775.792C422.535 774.838 426.175 773.408 429.902 771.502V786.452C426.695 788.185 423.185 789.442 419.372 790.222C415.645 791.088 411.009 791.522 405.462 791.522C398.702 791.522 392.679 790.222 387.392 787.622C382.192 784.935 378.075 780.905 375.042 775.532C372.095 770.158 370.622 763.398 370.622 755.252C370.622 746.932 371.965 740.042 374.652 734.582C377.425 729.035 381.239 724.875 386.092 722.102C391.032 719.328 396.709 717.942 403.122 717.942ZM403.512 731.722C400.392 731.722 397.792 732.935 395.712 735.362C393.632 737.788 392.419 741.558 392.072 746.672H414.822C414.822 743.812 414.389 741.255 413.522 739.002C412.655 736.748 411.399 734.972 409.752 733.672C408.105 732.372 406.025 731.722 403.512 731.722ZM534.859 717.942C542.572 717.942 548.379 720.022 552.279 724.182C556.265 728.255 558.259 734.842 558.259 743.942V790.222H537.589V748.752C537.589 743.638 536.809 739.825 535.249 737.312C533.775 734.712 531.522 733.412 528.489 733.412C524.155 733.412 521.122 735.232 519.389 738.872C517.655 742.512 516.789 747.755 516.789 754.602V790.222H495.989V748.752C495.989 745.372 495.642 742.555 494.949 740.302C494.342 738.048 493.389 736.358 492.089 735.232C490.789 734.018 489.055 733.412 486.889 733.412C483.942 733.412 481.602 734.322 479.869 736.142C478.222 737.962 477.052 740.605 476.359 744.072C475.665 747.538 475.319 751.785 475.319 756.812V790.222H454.519V719.242H470.249L473.239 728.342H474.019C475.319 725.915 476.922 723.965 478.829 722.492C480.822 720.932 483.075 719.805 485.589 719.112C488.189 718.332 490.962 717.942 493.909 717.942C498.762 717.942 502.835 718.808 506.129 720.542C509.509 722.188 512.152 724.788 514.059 728.342H515.229C517.309 724.702 520.082 722.058 523.549 720.412C527.102 718.765 530.872 717.942 534.859 717.942ZM644.535 754.602C644.535 760.495 643.755 765.738 642.195 770.332C640.722 774.925 638.555 778.825 635.695 782.032C632.835 785.152 629.325 787.535 625.165 789.182C621.092 790.742 616.498 791.522 611.385 791.522C606.618 791.522 602.198 790.742 598.125 789.182C594.052 787.535 590.542 785.152 587.595 782.032C584.735 778.825 582.482 774.925 580.835 770.332C579.275 765.738 578.495 760.495 578.495 754.602C578.495 746.715 579.838 740.085 582.525 734.712C585.212 729.252 589.025 725.092 593.965 722.232C598.905 719.372 604.842 717.942 611.775 717.942C618.188 717.942 623.822 719.372 628.675 722.232C633.615 725.092 637.472 729.252 640.245 734.712C643.105 740.085 644.535 746.715 644.535 754.602ZM599.685 754.602C599.685 759.282 600.075 763.225 600.855 766.432C601.722 769.552 603.022 771.935 604.755 773.582C606.575 775.142 608.872 775.922 611.645 775.922C614.505 775.922 616.758 775.142 618.405 773.582C620.138 771.935 621.395 769.552 622.175 766.432C622.955 763.225 623.345 759.282 623.345 754.602C623.345 749.922 622.955 746.022 622.175 742.902C621.395 739.782 620.095 737.442 618.275 735.882C616.542 734.322 614.288 733.542 611.515 733.542C607.268 733.542 604.235 735.318 602.415 738.872C600.595 742.338 599.685 747.582 599.685 754.602ZM705.225 717.942C712.331 717.942 718.051 720.022 722.385 724.182C726.805 728.255 729.015 734.842 729.015 743.942V790.222H708.215V748.752C708.215 743.638 707.435 739.825 705.875 737.312C704.401 734.712 702.018 733.412 698.725 733.412C693.698 733.412 690.318 735.448 688.585 739.522C686.851 743.508 685.985 749.272 685.985 756.812V790.222H665.185V719.242H680.915L683.775 728.342H684.685C686.158 725.915 687.891 723.965 689.885 722.492C691.965 720.932 694.305 719.805 696.905 719.112C699.505 718.332 702.278 717.942 705.225 717.942Z" fill="#FFA400"/>
<path d="M556.883 345.495C549.63 333.882 557.859 316.94 579.476 303.44C601.094 289.94 624.497 288.41 631.75 300.023C639.002 311.636 627.357 331.995 605.74 345.495C584.123 358.995 564.135 357.108 556.883 345.495Z" fill="#FFA400"/>
<path d="M279.094 534.552C246.823 482.877 287.438 376.518 383.629 316.446C479.82 256.374 595.162 265.338 627.434 317.014C659.705 368.689 608.173 470.552 511.982 530.624C415.791 590.695 311.366 586.228 279.094 534.552Z" fill="#FFA400"/>
<path d="M263.487 541.378C256.234 529.765 264.463 512.823 286.08 499.323C307.697 485.823 331.101 484.293 338.354 495.907C345.606 507.52 333.961 527.878 312.344 541.378C290.726 554.878 270.739 552.991 263.487 541.378Z" fill="#FFA400"/>
<path d="M678.7 414.017C671.448 402.404 679.676 385.462 701.293 371.962C722.911 358.462 746.314 356.932 753.567 368.545C760.819 380.158 749.174 400.517 727.557 414.017C705.94 427.517 685.953 425.63 678.7 414.017Z" fill="#FFDB1B"/>
<path d="M400.912 603.074C368.64 551.399 409.255 445.04 505.447 384.968C601.638 324.896 716.979 333.86 749.251 385.536C781.522 437.211 729.991 539.074 633.799 599.146C537.608 659.217 433.183 654.75 400.912 603.074Z" fill="#FFDB1B"/>
<path d="M385.304 609.901C378.052 598.287 386.28 581.346 407.898 567.845C429.515 554.345 452.919 552.816 460.171 564.429C467.424 576.042 455.779 596.401 434.161 609.901C412.544 623.401 392.557 621.514 385.304 609.901Z" fill="#FFDB1B"/>
</svg>
