<svg width="1024" height="1024" viewBox="0 0 1024 1024" fill="none" xmlns="http://www.w3.org/2000/svg">
<path d="M0 0H1024V1024H0V0Z" fill="white"/>
<path d="M275.466 474.395C251.495 424.337 305.351 332.928 406.391 289.255C507.43 245.581 617.391 266.181 641.362 316.24C665.333 366.298 601.573 452.471 500.534 496.144C399.494 539.818 299.436 524.454 275.466 474.395Z" fill="#FFA400"/>
<path d="M257.904 473.803C249.662 456.037 315.889 412.735 431.318 364.31C546.747 315.885 647.002 291.031 655.243 308.797C663.485 326.563 576.593 380.221 461.164 428.646C345.735 477.071 266.145 491.569 257.904 473.803Z" fill="#FFA400"/>
<path d="M735.074 303.874C740.059 327.225 738.964 359.531 728.898 362.009C718.832 364.487 703.608 336.199 698.624 312.849C693.639 289.498 695.82 259.117 705.885 256.639C715.951 254.161 730.09 280.523 735.074 303.874Z" fill="#7ED768"/>
<path d="M770.723 372.071C756.556 374.705 736.514 372.264 735.424 365.233C734.334 358.202 752.61 349.244 766.777 346.61C780.944 343.976 808.019 345.268 809.109 352.299C810.198 359.33 784.89 369.437 770.723 372.071Z" fill="#7ED768"/>
<path d="M359.255 586.794C329.218 534.317 373.546 430.383 471.229 374.47C568.912 318.557 682.959 331.838 712.997 384.315C743.034 436.792 688.05 535.851 590.367 591.764C492.684 647.677 389.293 639.271 359.255 586.794Z" fill="#FFDB1B"/>
<path d="M341.347 587.607C330.956 568.96 393.316 516.343 505.077 454.065C616.839 391.787 715.862 356.416 726.253 375.062C736.644 393.709 654.466 459.311 542.705 521.589C430.944 583.868 351.737 606.253 341.347 587.607Z" fill="#FFDB1B"/>
<path d="M548.343 421.703C549.585 426.855 545.631 432.241 539.512 433.733C533.392 435.225 528.344 436.075 527.102 430.924C525.86 425.772 523.354 417.922 529.474 416.429C535.593 414.937 547.101 416.552 548.343 421.703Z" fill="#FFEC89"/>
<ellipse cx="10.0504" cy="7.67572" rx="10.0504" ry="7.67572" transform="matrix(0.971525 -0.236937 0.234394 0.972142 583.67 380.827)" fill="#FFEC89"/>
<path d="M571.975 395.524C574.641 400.12 579.239 409.188 573.373 412.058C567.506 414.928 553.397 410.514 550.731 405.918C548.065 401.322 550.659 395.269 556.526 392.399C562.392 389.529 569.309 390.928 571.975 395.524Z" fill="#FFEC89"/>
<ellipse cx="5.95579" cy="5.11715" rx="5.95579" ry="5.11715" transform="matrix(0.971525 -0.236937 0.234394 0.972142 560.843 371.91)" fill="#FFEC89"/>
<ellipse cx="8.18921" cy="7.03608" rx="8.18921" ry="7.03608" transform="matrix(0.971525 -0.236937 0.234394 0.972142 511.889 394.382)" fill="#FFEC89"/>
<ellipse cx="9.67816" cy="9.59466" rx="9.67816" ry="9.59466" transform="matrix(0.971525 -0.236937 0.234394 0.972142 613.906 391.888)" fill="#FFEC89"/>
<path d="M325.744 725.622L342.384 687.402H365.004L336.144 744.082V780.222H315.214V744.732L286.354 687.402H309.234L325.744 725.622ZM403.301 707.942C409.627 707.942 415.087 709.198 419.681 711.712C424.274 714.225 427.827 717.865 430.341 722.632C432.854 727.398 434.111 733.248 434.111 740.182V749.542H391.861C392.034 755.002 393.421 759.292 396.021 762.412C398.707 765.532 402.521 767.092 407.461 767.092C411.794 767.092 415.694 766.658 419.161 765.792C422.714 764.838 426.354 763.408 430.081 761.502V776.452C426.874 778.185 423.364 779.442 419.551 780.222C415.824 781.088 411.187 781.522 405.641 781.522C398.881 781.522 392.857 780.222 387.571 777.622C382.371 774.935 378.254 770.905 375.221 765.532C372.274 760.158 370.801 753.398 370.801 745.252C370.801 736.932 372.144 730.042 374.831 724.582C377.604 719.035 381.417 714.875 386.271 712.102C391.211 709.328 396.887 707.942 403.301 707.942ZM403.691 721.722C400.571 721.722 397.971 722.935 395.891 725.362C393.811 727.788 392.597 731.558 392.251 736.672H415.001C415.001 733.812 414.567 731.255 413.701 729.002C412.834 726.748 411.577 724.972 409.931 723.672C408.284 722.372 406.204 721.722 403.691 721.722ZM535.037 707.942C542.751 707.942 548.557 710.022 552.457 714.182C556.444 718.255 558.437 724.842 558.437 733.942V780.222H537.767V738.752C537.767 733.638 536.987 729.825 535.427 727.312C533.954 724.712 531.701 723.412 528.667 723.412C524.334 723.412 521.301 725.232 519.567 728.872C517.834 732.512 516.967 737.755 516.967 744.602V780.222H496.167V738.752C496.167 735.372 495.821 732.555 495.127 730.302C494.521 728.048 493.567 726.358 492.267 725.232C490.967 724.018 489.234 723.412 487.067 723.412C484.121 723.412 481.781 724.322 480.047 726.142C478.401 727.962 477.231 730.605 476.537 734.072C475.844 737.538 475.497 741.785 475.497 746.812V780.222H454.697V709.242H470.427L473.417 718.342H474.197C475.497 715.915 477.101 713.965 479.007 712.492C481.001 710.932 483.254 709.805 485.767 709.112C488.367 708.332 491.141 707.942 494.087 707.942C498.941 707.942 503.014 708.808 506.307 710.542C509.687 712.188 512.331 714.788 514.237 718.342H515.407C517.487 714.702 520.261 712.058 523.727 710.412C527.281 708.765 531.051 707.942 535.037 707.942ZM644.714 744.602C644.714 750.495 643.934 755.738 642.374 760.332C640.9 764.925 638.734 768.825 635.874 772.032C633.014 775.152 629.504 777.535 625.344 779.182C621.27 780.742 616.677 781.522 611.564 781.522C606.797 781.522 602.377 780.742 598.304 779.182C594.23 777.535 590.72 775.152 587.774 772.032C584.914 768.825 582.66 764.925 581.014 760.332C579.454 755.738 578.674 750.495 578.674 744.602C578.674 736.715 580.017 730.085 582.704 724.712C585.39 719.252 589.204 715.092 594.144 712.232C599.084 709.372 605.02 707.942 611.954 707.942C618.367 707.942 624 709.372 628.854 712.232C633.794 715.092 637.65 719.252 640.424 724.712C643.284 730.085 644.714 736.715 644.714 744.602ZM599.864 744.602C599.864 749.282 600.254 753.225 601.034 756.432C601.9 759.552 603.2 761.935 604.934 763.582C606.754 765.142 609.05 765.922 611.824 765.922C614.684 765.922 616.937 765.142 618.584 763.582C620.317 761.935 621.574 759.552 622.354 756.432C623.134 753.225 623.524 749.282 623.524 744.602C623.524 739.922 623.134 736.022 622.354 732.902C621.574 729.782 620.274 727.442 618.454 725.882C616.72 724.322 614.467 723.542 611.694 723.542C607.447 723.542 604.414 725.318 602.594 728.872C600.774 732.338 599.864 737.582 599.864 744.602ZM705.403 707.942C712.51 707.942 718.23 710.022 722.563 714.182C726.983 718.255 729.193 724.842 729.193 733.942V780.222H708.393V738.752C708.393 733.638 707.613 729.825 706.053 727.312C704.58 724.712 702.197 723.412 698.903 723.412C693.877 723.412 690.497 725.448 688.763 729.522C687.03 733.508 686.163 739.272 686.163 746.812V780.222H665.363V709.242H681.093L683.953 718.342H684.863C686.337 715.915 688.07 713.965 690.063 712.492C692.143 710.932 694.483 709.805 697.083 709.112C699.683 708.332 702.457 707.942 705.403 707.942Z" fill="#FFA400"/>
</svg>
